# xmcd CD database file
# Copyright (C) 1993-1998 Ti Kan
#
# Track frame offsets:
#	150
#	11345
#	27065
#	41160
#	57513
#	73430
#	85435
#	100338
#	112345
#	124258
#
# Disc length: 1839 seconds
#
# Revision: 1
# Processed by: cddbd v1.4b41PL1 Copyright (c) Steve Scherf et al.
# Submitted via: DiscPlay 3.3.1
#
DISCID=92072d0a
DTITLE=George Strait - Holding My Own
DYEAR=1900
DGENRE=
TTITLE0=You're Right I'm Wrong
TTITLE1=Holding My Own
TTITLE2=Gone As A Girl Can Get
TTITLE3=So Much Like My Lady
TTITLE4=Trains Make Me Lonesome
TTITLE5=All Of Me (Loves All Of You)
TTITLE6=Wonderland Of Love
TTITLE7=Faults And All
TTITLE8=It's Alright With Me
TTITLE9=Here We Go Again
EXTD=
EXTT0=
EXTT1=
EXTT2=
EXTT3=
EXTT4=
EXTT5=
EXTT6=
EXTT7=
EXTT8=
EXTT9=
PLAYORDER=
